<svg width="41" height="41" viewBox="0 0 41 41" fill="none" xmlns="http://www.w3.org/2000/svg">
<path d="M37.1562 7.6875H30.75V3.84375C30.75 1.72168 29.0283 0 26.9062 0H14.0938C11.9717 0 10.25 1.72168 10.25 3.84375V7.6875H3.84375C1.72168 7.6875 0 9.40918 0 11.5312V34.5938C0 36.7158 1.72168 38.4375 3.84375 38.4375H37.1562C39.2783 38.4375 41 36.7158 41 34.5938V11.5312C41 9.40918 39.2783 7.6875 37.1562 7.6875ZM14.0938 3.84375H26.9062V7.6875H14.0938V3.84375ZM29.4688 25.1445C29.4688 25.8521 28.8951 26.4258 28.1875 26.4258H23.8633V30.75C23.8633 31.4576 23.2896 32.0312 22.6541 32.0312H18.49C17.7825 32.0312 17.2088 31.4576 17.2088 30.75V26.4979H12.8125C12.1049 26.4979 11.5312 25.9242 11.5312 25.2166V21.0525C11.5312 20.3448 12.1049 19.7713 12.8125 19.7713H17.0646V15.375C17.0646 14.6673 17.6384 14.0938 18.3459 14.0938H22.51C23.2175 14.0938 23.7191 14.6673 23.7191 15.375V19.6992H28.1875C28.8951 19.6992 29.4688 20.2727 29.4688 20.9805V25.1445Z" fill="#298DD1"/>
</svg>
