<svg width="25" height="25" viewBox="0 0 44 42" fill="none" xmlns="http://www.w3.org/2000/svg">
<path d="M13.75 35.25H8.25C6.73148 35.25 5.5 33.9346 5.5 32.3125V8.8125C5.5 7.19045 6.73148 5.875 8.25 5.875H13.75C15.2685 5.875 16.5 4.55955 16.5 2.9375C16.5 1.31545 15.2711 0 13.75 0H8.25C3.69359 0 0 3.94543 0 8.8125V32.3125C0 37.1796 3.69359 41.125 8.25 41.125H13.75C15.2685 41.125 16.5 39.8096 16.5 38.1875C16.5 36.5654 15.2711 35.25 13.75 35.25ZM43.1922 18.4879L32.1922 6.73789C31.1171 5.58951 29.3769 5.59135 28.3035 6.73789C27.2293 7.88535 27.2293 9.74424 28.3035 10.8917L34.6156 17.625H16.5C14.9789 17.625 13.75 18.9377 13.75 20.5625C13.75 22.1873 14.9798 23.5 16.5 23.5H34.6156L28.3095 30.2361C27.2353 31.3835 27.2353 33.2424 28.3095 34.3899C29.3838 35.5373 31.124 35.5373 32.1982 34.3899L43.1982 22.6399C44.2664 21.4896 44.2664 19.6354 43.1922 18.4879Z" fill="#298DD1"/>
</svg>
