<svg width="32" height="32" viewBox="0 0 47 44" fill="none" xmlns="http://www.w3.org/2000/svg">
<g clip-path="url(#clip0_13_17)">
<path d="M41.9643 2.75H5.03571C3.70016 2.75 2.41931 3.1846 1.47493 3.95818C0.530547 4.73177 0 5.78098 0 6.875L0 37.125C0 38.219 0.530547 39.2682 1.47493 40.0418C2.41931 40.8154 3.70016 41.25 5.03571 41.25H19.4347V28.1609H12.8253V22H19.4347V17.3044C19.4347 11.9634 23.3164 9.01312 29.2617 9.01312C32.109 9.01312 35.0863 9.42906 35.0863 9.42906V14.6713H31.8058C28.5735 14.6713 27.5653 16.3144 27.5653 17.9996V22H34.781L33.627 28.1609H27.5653V41.25H41.9643C43.2998 41.25 44.5807 40.8154 45.5251 40.0418C46.4695 39.2682 47 38.219 47 37.125V6.875C47 5.78098 46.4695 4.73177 45.5251 3.95818C44.5807 3.1846 43.2998 2.75 41.9643 2.75Z" fill="#298DD1"/>
</g>
<defs>
<clipPath id="clip0_13_17">
<rect width="47" height="44" rx="4" fill="white"/>
</clipPath>
</defs>
</svg>
