<svg width="47" height="44" viewBox="0 0 47 44" fill="none" xmlns="http://www.w3.org/2000/svg">
<path d="M23.5052 10.719C16.8366 10.719 11.4577 15.7557 11.4577 22C11.4577 28.2443 16.8366 33.281 23.5052 33.281C30.1738 33.281 35.5528 28.2443 35.5528 22C35.5528 15.7557 30.1738 10.719 23.5052 10.719ZM23.5052 29.3342C19.1958 29.3342 15.6728 26.0451 15.6728 22C15.6728 17.9549 19.1853 14.6658 23.5052 14.6658C27.8252 14.6658 31.3377 17.9549 31.3377 22C31.3377 26.0451 27.8147 29.3342 23.5052 29.3342ZM38.8556 10.2575C38.8556 11.7204 37.5974 12.8888 36.0456 12.8888C34.4833 12.8888 33.2355 11.7106 33.2355 10.2575C33.2355 8.80442 34.4938 7.62624 36.0456 7.62624C37.5974 7.62624 38.8556 8.80442 38.8556 10.2575ZM46.8349 12.928C46.6566 9.40333 45.7968 6.28116 43.0392 3.7088C40.2921 1.13645 36.9578 0.331362 33.1936 0.154636C29.3141 -0.0515452 17.6859 -0.0515452 13.8064 0.154636C10.0527 0.321544 6.7184 1.12663 3.96079 3.69898C1.20318 6.27134 0.353876 9.39351 0.165142 12.9182C-0.0550474 16.5509 -0.0550474 27.4392 0.165142 31.072C0.343391 34.5967 1.20318 37.7188 3.96079 40.2912C6.7184 42.8635 10.0422 43.6686 13.8064 43.8454C17.6859 44.0515 29.3141 44.0515 33.1936 43.8454C36.9578 43.6785 40.2921 42.8734 43.0392 40.2912C45.7863 37.7188 46.6461 34.5967 46.8349 31.072C47.055 27.4392 47.055 16.5607 46.8349 12.928ZM41.8229 34.9698C41.0051 36.8941 39.4218 38.3767 37.3562 39.1523C34.2631 40.301 26.9234 40.0359 23.5052 40.0359C20.0871 40.0359 12.7369 40.2912 9.65427 39.1523C7.59916 38.3865 6.0159 36.9039 5.18756 34.9698C3.96079 32.0734 4.24389 25.2007 4.24389 22C4.24389 18.7993 3.97128 11.9168 5.18756 9.03024C6.00541 7.10588 7.58868 5.62334 9.65427 4.84771C12.7474 3.69898 20.0871 3.96407 23.5052 3.96407C26.9234 3.96407 34.2736 3.7088 37.3562 4.84771C39.4113 5.61352 40.9946 7.09606 41.8229 9.03024C43.0497 11.9266 42.7666 18.7993 42.7666 22C42.7666 25.2007 43.0497 32.0832 41.8229 34.9698Z" fill="#298DD1"/>
</svg>
