<svg width="47" height="44" viewBox="0 0 47 44" fill="none" xmlns="http://www.w3.org/2000/svg">
<path d="M43.6429 2.75H3.34665C1.50022 2.75 0 3.99609 0 5.52578V38.4742C0 40.0039 1.50022 41.25 3.34665 41.25H43.6429C45.4893 41.25 47 40.0039 47 38.4742V5.52578C47 3.99609 45.4893 2.75 43.6429 2.75ZM14.2049 35.75H7.23884V17.3766H14.2154V35.75H14.2049ZM10.7219 14.8672C8.48728 14.8672 6.68281 13.3805 6.68281 11.5586C6.68281 9.73672 8.48728 8.25 10.7219 8.25C12.946 8.25 14.7609 9.73672 14.7609 11.5586C14.7609 13.3891 12.9565 14.8672 10.7219 14.8672ZM40.3172 35.75H33.3511V26.8125C33.3511 24.6812 33.2987 21.9398 29.7317 21.9398C26.1018 21.9398 25.5458 24.2602 25.5458 26.6578V35.75H18.5797V17.3766H25.2625V19.8859H25.3569C26.2906 18.4422 28.5672 16.9211 31.9558 16.9211C39.0058 16.9211 40.3172 20.7281 40.3172 25.6781V35.75Z" fill="#298DD1"/>
</svg>
