<svg width="29" height="31" viewBox="0 0 29 31" fill="none" xmlns="http://www.w3.org/2000/svg">
<g clip-path="url(#clip0_13_39)">
<path d="M28.9547 23.432L27.6378 29.5351C27.4528 30.3979 26.7434 31.0016 25.9125 31.0016C11.6227 31.0004 0 18.5761 0 3.30016C0 2.41254 0.56465 1.65329 1.37184 1.45651L7.08121 0.0487939C7.91269 -0.157187 8.76231 0.304181 9.10781 1.1459L11.7427 7.71524C12.0507 8.48903 11.843 9.39057 11.2341 9.92217L8.18457 12.5396C10.1092 16.7307 13.297 20.1382 17.2188 22.1968L19.7155 18.9394C20.2076 18.2867 21.0573 18.0609 21.7812 18.396L27.9267 21.212C28.6658 21.6277 29.1473 22.548 28.9547 23.432Z" fill="white"/>
</g>
<defs>
<clipPath id="clip0_13_39">
<rect width="29" height="31" fill="white"/>
</clipPath>
</defs>
</svg>
